<svg width="30" height="30" viewBox="0 0 30 30" fill="none" xmlns="http://www.w3.org/2000/svg">
<path d="M3.75 15C3.75 19.0192 5.89424 22.7332 9.375 24.7428C12.8558 26.7524 17.1442 26.7524 20.625 24.7428C24.1058 22.7332 26.25 19.0192 26.25 15C26.25 10.9808 24.1058 7.26683 20.625 5.25721C17.1442 3.2476 12.8558 3.2476 9.375 5.25721C5.89424 7.26683 3.75 10.9808 3.75 15" stroke="black" stroke-width="1.875" stroke-linecap="round" stroke-linejoin="round"/>
<path d="M13.1629 11.8371C12.7968 11.471 12.2032 11.471 11.8371 11.8371C11.471 12.2032 11.471 12.7968 11.8371 13.1629L13.1629 11.8371ZM16.8371 18.1629C17.2032 18.529 17.7968 18.529 18.1629 18.1629C18.529 17.7968 18.529 17.2032 18.1629 16.8371L16.8371 18.1629ZM18.1629 13.1629C18.529 12.7968 18.529 12.2032 18.1629 11.8371C17.7968 11.471 17.2032 11.471 16.8371 11.8371L18.1629 13.1629ZM11.8371 16.8371C11.471 17.2032 11.471 17.7968 11.8371 18.1629C12.2032 18.529 12.7968 18.529 13.1629 18.1629L11.8371 16.8371ZM11.8371 13.1629L16.8371 18.1629L18.1629 16.8371L13.1629 11.8371L11.8371 13.1629ZM16.8371 11.8371L11.8371 16.8371L13.1629 18.1629L18.1629 13.1629L16.8371 11.8371Z" fill="black"/>
</svg>
