<svg width="26" height="26" viewBox="0 0 26 26" fill="none" xmlns="http://www.w3.org/2000/svg">
<path d="M6.14453 13.965H19.8554V15.4882H6.14453V13.965Z" fill="black"/>
<path d="M6.14453 17.0117H19.8554V18.5351H6.14453V17.0117Z" fill="black"/>
<path d="M6.14453 20.0585H19.8554V26H6.14453V20.0585Z" fill="black"/>
<path fill-rule="evenodd" clip-rule="evenodd" d="M24.4256 24.4766H25.2381C25.6588 24.4766 25.9998 24.8175 25.9998 25.2383C25.9998 25.659 25.6588 26 25.2381 26H21.3789V13.2032C21.3789 12.7825 21.0377 12.4415 20.6172 12.4415H5.38287C4.96234 12.4415 4.62115 12.7825 4.62115 13.2032V26H0.761994C0.341265 26 0.000278152 25.659 0.000278152 25.2383C0.000278152 24.8175 0.341265 24.4766 0.761994 24.4766H1.57449V7.03346L1.0889 7.26415C0.983367 7.31434 0.872085 7.33795 0.762589 7.33795C0.477541 7.33795 0.204394 7.17747 0.073871 6.90293C-0.10664 6.52306 0.0550264 6.0688 0.435091 5.88809L12.6731 0.0737924C12.8796 -0.0243987 13.119 -0.024597 13.3257 0.0731973L25.5638 5.86211C25.944 6.04202 26.1065 6.49608 25.9268 6.87655C25.7469 7.25681 25.2926 7.41908 24.9123 7.23936L24.4256 7.00906V24.4766ZM16.8544 10.3087H17.5654C17.9861 10.3087 18.3273 9.96768 18.3273 9.54695C18.3273 9.12621 17.9861 8.78522 17.5656 8.78522H16.8546C16.4625 8.78522 16.1435 8.46625 16.1435 8.07408V7.97311C16.1435 7.58094 16.4625 7.26197 16.8546 7.26197H17.5654C17.9859 7.26197 18.3271 6.92098 18.3271 6.50025C18.3271 6.07971 17.9859 5.73852 17.5654 5.73852H16.8546C15.8709 5.73852 15.0344 6.37746 14.7367 7.26197H11.3578C11.0598 6.37746 10.2233 5.73852 9.23985 5.73852H8.52911C8.10838 5.73852 7.7674 6.07971 7.7674 6.50025C7.7674 6.92098 8.10838 7.26197 8.52911 7.26197H9.23985C9.63201 7.26197 9.95098 7.58094 9.95098 7.97311V8.07408C9.95098 8.46625 9.63201 8.78522 9.23985 8.78522H8.52891C8.10819 8.78522 7.7672 9.12621 7.7672 9.54695C7.7672 9.96768 8.10819 10.3087 8.52891 10.3087H9.23985C10.2233 10.3087 11.0598 9.66974 11.3576 8.78542H14.7367C15.0344 9.66974 15.8709 10.3087 16.8544 10.3087Z" fill="black"/>
</svg>
