<svg width="148" height="39" viewBox="0 0 148 39" fill="none" xmlns="http://www.w3.org/2000/svg">
<path d="M80.6123 30.754L114.828 31.4968L81.1421 32.4972L80.6123 30.754V30.754Z" fill="url(#paint0_linear_0_14793)"/>
<path d="M106.747 28.8325L80.9423 29.6001L78.7781 29.6645C78.2983 29.1098 77.7835 28.6146 77.2388 28.1887L80.3825 28.258L106.747 28.8325V28.8325Z" fill="url(#paint1_linear_0_14793)"/>
<path d="M138.039 8.55768L116.938 9.18167L113.239 9.29062C112.649 8.84987 112.035 8.41406 111.4 7.97331L115.258 8.0575L138.039 8.55273V8.55768Z" fill="url(#paint2_linear_0_14793)"/>
<path d="M148 27.4508L134.61 27.847L133.901 27.8668C133.821 27.6142 133.736 27.3715 133.651 27.1388L134.52 27.1586L148 27.4508Z" fill="url(#paint3_linear_0_14793)"/>
<path d="M143.627 26.0047L134.38 26.2771L133.326 26.3068C133.251 26.1186 133.166 25.9453 133.086 25.7719L134.295 25.7967L143.627 25.9997V26.0047Z" fill="url(#paint4_linear_0_14793)"/>
<path d="M136.04 23.4493C136.04 23.4493 134.736 17.1747 129.568 16.2338C124.395 15.2928 110.61 16.3378 107.342 14.5599C107.342 14.5599 113.699 14.2231 118.512 13.5298C117.338 12.5047 115.473 10.9348 113.239 9.29062C112.649 8.84987 112.035 8.41406 111.4 7.97331C110.675 7.47808 109.926 6.98284 109.156 6.50742C108.536 6.12114 107.911 5.74972 107.277 5.39315C104.273 3.70936 101.119 2.4069 98.3003 2.17909C90.4834 1.5452 83.4213 11.5489 81.627 14.3123C83.6762 14.6144 85.5954 14.9363 87.2897 15.1987C95.0966 16.3972 100.784 15.1096 100.969 15.065C100.814 15.1839 95.1216 19.5221 87.6996 18.4475C80.1726 17.3629 72.7856 15.3325 67.4478 17.0955C62.1099 18.8585 55.8175 34.3147 50.0698 37.296C44.3221 40.2773 9.84113 38.9203 4.63824 36.4838C-0.559656 34.0423 0.260011 29.1643 0.260011 29.1643C0.260011 29.1643 2.2692 30.4519 4.79817 30.6153C13.9944 31.2046 28.9784 33.0221 36.2654 31.7593C39.674 31.17 42.223 29.5803 44.1572 27.4211L29.963 27.0992C29.963 27.0992 33.0367 24.1228 40.8685 22.023C45.9115 20.6711 50.4297 20.2154 53.0136 20.0669C54.563 18.5762 56.1923 17.1648 58.2765 16.0109C63.5943 13.0742 70.6915 13.0544 77.1888 13.7428C78.6083 11.8213 83.2414 5.9379 89.034 2.67433C83.5612 2.38214 69.292 1.76805 61.5102 2.7189C54.508 3.57565 36.3154 12.1085 35.7506 12.3759C36.2504 12.0392 51.0494 2.17909 62.8296 0.708255C73.2754 -0.594205 91.1482 0.252642 95.5714 0.490353C96.0162 0.450735 96.461 0.425973 96.9058 0.44083C101.164 0.554733 106.362 2.82785 111.025 5.47734C111.56 5.78438 112.09 6.09143 112.609 6.40342C113.524 6.95313 114.409 7.51274 115.248 8.06245C115.833 8.44378 116.393 8.8152 116.933 9.18167C119.082 10.6426 120.856 11.9698 122.011 12.8612C127.703 11.4102 131.622 13.2228 134.031 16.0258C136.46 18.8486 136.035 23.4493 136.035 23.4493H136.04Z" fill="url(#paint5_linear_0_14793)"/>
<path d="M81.9468 35.4983C81.2071 33.1955 80.1175 31.1997 78.7781 29.6645C78.2983 29.1098 77.7835 28.6146 77.2387 28.1887C75.7443 27.01 74.045 26.3415 72.2357 26.3415C67.9575 26.3415 64.264 30.0755 62.5247 35.4884C62.5397 28.1342 66.8779 22.1766 72.2357 22.1766C75.6493 22.1766 78.6531 24.5982 80.3824 28.258C80.5873 28.6889 80.7723 29.1346 80.9422 29.6001C81.0771 29.9814 81.2071 30.3726 81.317 30.7738C81.472 31.3284 81.6019 31.898 81.6969 32.4873C81.8618 33.4579 81.9518 34.4633 81.9518 35.5033L81.9468 35.4983Z" fill="url(#paint6_linear_0_14793)"/>
<path d="M134.845 31.8286C134.601 30.5509 134.281 29.3822 133.901 28.3521C133.821 28.1292 133.736 27.9163 133.651 27.7133C133.546 27.4607 133.436 27.218 133.321 26.9902C133.246 26.8268 133.161 26.6733 133.081 26.5197C132.147 24.8062 130.992 23.796 129.747 23.796C127.503 23.796 125.564 27.0744 124.655 31.8187C124.66 25.3659 126.939 20.1412 129.747 20.1412C131.732 20.1412 133.446 22.7411 134.291 26.5396C134.321 26.6782 134.351 26.8169 134.376 26.9605C134.431 27.2081 134.476 27.4656 134.521 27.7281C134.551 27.9262 134.586 28.1292 134.611 28.3323C134.765 29.4367 134.845 30.6104 134.845 31.8237V31.8286Z" fill="url(#paint7_linear_0_14793)"/>
<path d="M7.99676 16.3378C12.6749 14.9115 19.0773 14.6243 19.0773 14.6243C19.0773 14.6243 12.8498 12.4948 6.84223 14.8372C0.149939 17.4471 0 22.7263 0 22.7263C0 22.7263 3.32365 17.764 7.99676 16.3378Z" fill="url(#paint8_linear_0_14793)"/>
<path d="M85.5203 12.1976C85.5203 12.1976 89.9785 4.41259 96.6258 3.59051C103.273 2.76842 110.145 9.50357 110.145 9.50357L85.5203 12.1976V12.1976Z" fill="url(#paint9_linear_0_14793)"/>
<path d="M40.3588 12.059C40.3588 12.059 52.9487 4.69982 61.5102 3.77869C70.0767 2.85756 84.6208 3.67469 84.6208 3.67469L74.6099 12.163L40.3538 12.059H40.3588Z" fill="url(#paint10_linear_0_14793)"/>
<defs>
<linearGradient id="paint0_linear_0_14793" x1="119.572" y1="30.7266" x2="84.2808" y2="30.7266" gradientUnits="userSpaceOnUse">
<stop stop-color="#FFCD28"/>
<stop offset="0.67" stop-color="#E38805"/>
<stop offset="0.78" stop-color="#D46F09"/>
<stop offset="1" stop-color="#AF3115"/>
</linearGradient>
<linearGradient id="paint1_linear_0_14793" x1="119.572" y1="28.0441" x2="84.2809" y2="28.0441" gradientUnits="userSpaceOnUse">
<stop stop-color="#FFCD28"/>
<stop offset="0.67" stop-color="#E38805"/>
<stop offset="0.78" stop-color="#D46F09"/>
<stop offset="1" stop-color="#AF3115"/>
</linearGradient>
<linearGradient id="paint2_linear_0_14793" x1="141.728" y1="7.95267" x2="114.254" y2="7.95267" gradientUnits="userSpaceOnUse">
<stop stop-color="#FFCD28"/>
<stop offset="0.67" stop-color="#E38805"/>
<stop offset="0.78" stop-color="#D46F09"/>
<stop offset="1" stop-color="#AF3115"/>
</linearGradient>
<linearGradient id="paint3_linear_0_14793" x1="149.989" y1="27.1249" x2="135.19" y2="27.1249" gradientUnits="userSpaceOnUse">
<stop stop-color="#FFCD28"/>
<stop offset="0.67" stop-color="#E38805"/>
<stop offset="0.78" stop-color="#D46F09"/>
<stop offset="1" stop-color="#AF3115"/>
</linearGradient>
<linearGradient id="paint4_linear_0_14793" x1="148.21" y1="25.7244" x2="135.6" y2="25.7244" gradientUnits="userSpaceOnUse">
<stop stop-color="#FFCD28"/>
<stop offset="0.67" stop-color="#E38805"/>
<stop offset="0.78" stop-color="#D46F09"/>
<stop offset="1" stop-color="#AF3115"/>
</linearGradient>
<linearGradient id="paint5_linear_0_14793" x1="0.200786" y1="-0.00487872" x2="0.200786" y2="39.0045" gradientUnits="userSpaceOnUse">
<stop stop-color="#FFCD28"/>
<stop offset="0.67" stop-color="#E38805"/>
<stop offset="0.78" stop-color="#D46F09"/>
<stop offset="1" stop-color="#AF3115"/>
</linearGradient>
<linearGradient id="paint6_linear_0_14793" x1="62.5222" y1="22.1716" x2="62.5222" y2="35.4983" gradientUnits="userSpaceOnUse">
<stop stop-color="#FFCD28"/>
<stop offset="0.67" stop-color="#E38805"/>
<stop offset="0.78" stop-color="#D46F09"/>
<stop offset="1" stop-color="#AF3115"/>
</linearGradient>
<linearGradient id="paint7_linear_0_14793" x1="124.657" y1="20.1412" x2="124.657" y2="31.8286" gradientUnits="userSpaceOnUse">
<stop stop-color="#FFCD28"/>
<stop offset="0.67" stop-color="#E38805"/>
<stop offset="0.78" stop-color="#D46F09"/>
<stop offset="1" stop-color="#AF3115"/>
</linearGradient>
<linearGradient id="paint8_linear_0_14793" x1="0.00239475" y1="13.7378" x2="0.00239475" y2="22.7263" gradientUnits="userSpaceOnUse">
<stop stop-color="#FFCD28"/>
<stop offset="0.67" stop-color="#E38805"/>
<stop offset="0.78" stop-color="#D46F09"/>
<stop offset="1" stop-color="#AF3115"/>
</linearGradient>
<linearGradient id="paint9_linear_0_14793" x1="77.6961" y1="-0.44625" x2="77.9406" y2="12.5315" gradientUnits="userSpaceOnUse">
<stop stop-color="white"/>
<stop offset="1" stop-color="#0C0E19" stop-opacity="0.01"/>
</linearGradient>
<linearGradient id="paint10_linear_0_14793" x1="25.0451" y1="-0.195115" x2="25.3586" y2="12.7674" gradientUnits="userSpaceOnUse">
<stop stop-color="white"/>
<stop offset="1" stop-color="#0C0E19" stop-opacity="0.01"/>
</linearGradient>
</defs>
</svg>
