<svg width="30" height="30" viewBox="0 0 30 30" fill="none" xmlns="http://www.w3.org/2000/svg">
<path d="M6.25 21.25C6.25 22.6307 7.36929 23.75 8.75 23.75C10.1307 23.75 11.25 22.6307 11.25 21.25C11.25 19.8693 10.1307 18.75 8.75 18.75C7.36929 18.75 6.25 19.8693 6.25 21.25" stroke="black" stroke-width="1.875" stroke-linecap="round" stroke-linejoin="round"/>
<path d="M18.75 21.25C18.75 22.6307 19.8693 23.75 21.25 23.75C22.6307 23.75 23.75 22.6307 23.75 21.25C23.75 19.8693 22.6307 18.75 21.25 18.75C19.8693 18.75 18.75 19.8693 18.75 21.25" stroke="black" stroke-width="1.875" stroke-linecap="round" stroke-linejoin="round"/>
<path d="M6.25 22.1875C6.76777 22.1875 7.1875 21.7678 7.1875 21.25C7.1875 20.7322 6.76777 20.3125 6.25 20.3125V22.1875ZM3.75 21.25H2.8125C2.8125 21.7678 3.23223 22.1875 3.75 22.1875V21.25ZM16.25 6.25H17.1875C17.1875 5.73223 16.7678 5.3125 16.25 5.3125V6.25ZM15.3125 21.25C15.3125 21.7678 15.7322 22.1875 16.25 22.1875C16.7678 22.1875 17.1875 21.7678 17.1875 21.25H15.3125ZM11.25 20.3125C10.7322 20.3125 10.3125 20.7322 10.3125 21.25C10.3125 21.7678 10.7322 22.1875 11.25 22.1875V20.3125ZM18.75 22.1875C19.2678 22.1875 19.6875 21.7678 19.6875 21.25C19.6875 20.7322 19.2678 20.3125 18.75 20.3125V22.1875ZM23.75 20.3125C23.2322 20.3125 22.8125 20.7322 22.8125 21.25C22.8125 21.7678 23.2322 22.1875 23.75 22.1875V20.3125ZM26.25 21.25V22.1875C26.7678 22.1875 27.1875 21.7678 27.1875 21.25H26.25ZM26.25 13.75H27.1875C27.1875 13.2322 26.7678 12.8125 26.25 12.8125V13.75ZM16.25 12.8125C15.7322 12.8125 15.3125 13.2322 15.3125 13.75C15.3125 14.2678 15.7322 14.6875 16.25 14.6875V12.8125ZM16.25 6.5625C15.7322 6.5625 15.3125 6.98223 15.3125 7.5C15.3125 8.01777 15.7322 8.4375 16.25 8.4375V6.5625ZM22.5 7.5L23.3039 7.01766C23.1345 6.73528 22.8293 6.5625 22.5 6.5625V7.5ZM25.4461 14.2323C25.7125 14.6763 26.2884 14.8203 26.7323 14.5539C27.1763 14.2875 27.3203 13.7116 27.0539 13.2677L25.4461 14.2323ZM6.25 20.3125H3.75V22.1875H6.25V20.3125ZM4.6875 21.25V7.5H2.8125V21.25H4.6875ZM4.6875 7.5C4.6875 7.32741 4.82741 7.1875 5 7.1875V5.3125C3.79188 5.3125 2.8125 6.29188 2.8125 7.5H4.6875ZM5 7.1875H16.25V5.3125H5V7.1875ZM15.3125 6.25V21.25H17.1875V6.25H15.3125ZM11.25 22.1875H18.75V20.3125H11.25V22.1875ZM23.75 22.1875H26.25V20.3125H23.75V22.1875ZM27.1875 21.25V13.75H25.3125V21.25H27.1875ZM26.25 12.8125H16.25V14.6875H26.25V12.8125ZM16.25 8.4375H22.5V6.5625H16.25V8.4375ZM21.6961 7.98234L25.4461 14.2323L27.0539 13.2677L23.3039 7.01766L21.6961 7.98234Z" fill="black"/>
</svg>
