<svg width="31" height="31" viewBox="0 0 31 31" fill="none" xmlns="http://www.w3.org/2000/svg">
<path d="M9.65967 14.25V24.25C9.65967 24.9404 9.10002 25.5 8.40967 25.5H5.90967C5.21931 25.5 4.65967 24.9404 4.65967 24.25V15.5C4.65967 14.8096 5.21931 14.25 5.90967 14.25H9.65967C12.4211 14.25 14.6597 12.0114 14.6597 9.25V8C14.6597 6.61929 15.779 5.5 17.1597 5.5C18.5404 5.5 19.6597 6.61929 19.6597 8V14.25H23.4097C24.7904 14.25 25.9097 15.3693 25.9097 16.75L24.6597 23C24.2904 24.5753 23.2711 25.5946 22.1597 25.5H13.4097C11.3386 25.5 9.65967 23.8211 9.65967 21.75" stroke="black" stroke-width="1.875" stroke-linecap="round" stroke-linejoin="round"/>
</svg>
