<svg width="24" height="23" viewBox="0 0 24 23" fill="none" xmlns="http://www.w3.org/2000/svg">
<path fill-rule="evenodd" clip-rule="evenodd" d="M20.3096 6.58359C20.7909 7.41912 21.6223 7.98695 22.568 8.12598C23.1927 8.21729 23.6892 8.70353 23.8 9.33242C23.9332 10.0451 24.0002 10.7689 24 11.4943C23.9901 12.182 23.9205 12.8675 23.792 13.5428C23.683 14.1862 23.1749 14.6841 22.536 14.7735C21.5625 14.8912 20.7004 15.4652 20.208 16.3233C19.7157 17.1813 19.6505 18.2237 20.032 19.1378C20.2696 19.7418 20.0951 20.432 19.6 20.8462C18.6394 21.656 17.5598 22.309 16.4 22.7814C15.78 23.0325 15.0706 22.8298 14.672 22.2875C14.0811 21.4837 13.1499 21.0094 12.16 21.0082C11.137 21.0057 10.1789 21.5148 9.60002 22.3684C9.32492 22.7635 8.87756 22.9989 8.40002 23C8.22839 22.9979 8.05822 22.9678 7.89602 22.9109C6.62768 22.4391 5.44812 21.7518 4.40803 20.8786C3.88826 20.4545 3.72009 19.7269 4.00003 19.1135C4.42189 18.1834 4.37222 17.104 3.86677 16.2176C3.36133 15.3312 2.46279 14.7477 1.45603 14.6521C0.791151 14.5799 0.25666 14.0655 0.152034 13.3971C0.0497781 12.7681 -0.00106079 12.1317 3.4087e-05 11.4943C3.4087e-05 10.7329 0.0750721 9.97345 0.224034 9.22716C0.346982 8.58036 0.872948 8.09074 1.52003 8.02072C2.50454 7.92843 3.38756 7.36931 3.90019 6.51363C4.41282 5.65794 4.49438 4.60697 4.12003 3.68077C3.88447 3.0651 4.07258 2.36593 4.58403 1.95613C5.5725 1.16269 6.67976 0.534024 7.86402 0.0938419C8.46308 -0.131389 9.13732 0.0579864 9.53602 0.563463C10.1289 1.33072 11.0377 1.77907 12 1.77907C12.9624 1.77907 13.8712 1.33072 14.464 0.563463C14.8627 0.0579864 15.537 -0.131389 16.136 0.0938419C17.4186 0.570623 18.6096 1.26924 19.656 2.15855C20.1419 2.56438 20.3188 3.23819 20.096 3.83461C19.7497 4.73602 19.8283 5.74806 20.3096 6.58359ZM12 15.5427C14.2092 15.5427 16 13.7302 16 11.4943C16 9.25839 14.2092 7.44584 12 7.44584C9.79088 7.44584 8.00002 9.25839 8.00002 11.4943C8.00002 13.7302 9.79088 15.5427 12 15.5427Z" fill="black"/>
</svg>
