<svg width="269" height="139" viewBox="0 0 269 139" fill="none" xmlns="http://www.w3.org/2000/svg">
<path fill-rule="evenodd" clip-rule="evenodd" d="M38.9885 135C37.7907 135 36.6426 134.809 35.5451 134.427C34.4469 134.045 33.5987 133.554 33 132.955L33.668 131.674C34.2359 132.213 34.9996 132.667 35.9597 133.034C36.9193 133.401 37.9291 133.584 38.9885 133.584C40.0019 133.584 40.8271 133.461 41.4645 133.213C42.1017 132.966 42.57 132.633 42.8696 132.213C43.169 131.794 43.3188 131.33 43.3188 130.82C43.3188 130.206 43.1381 129.712 42.7776 129.337C42.4162 128.963 41.9446 128.667 41.361 128.449C40.7771 128.233 40.1324 128.041 39.4259 127.876C38.7194 127.712 38.0129 127.536 37.307 127.348C36.6005 127.161 35.9519 126.91 35.361 126.596C34.7695 126.281 34.2934 125.865 33.9329 125.348C33.5718 124.831 33.3917 124.154 33.3917 123.315C33.3917 122.536 33.6027 121.82 34.0249 121.169C34.4469 120.517 35.0962 119.993 35.9709 119.596C36.8466 119.199 37.9672 119 39.3342 119C40.2401 119 41.1382 119.124 42.0291 119.371C42.9193 119.618 43.6872 119.959 44.3323 120.393L43.7565 121.719C43.0655 121.27 42.3318 120.941 41.5566 120.731C40.7811 120.521 40.0325 120.416 39.3109 120.416C38.3435 120.416 37.5449 120.543 36.9156 120.798C36.2857 121.053 35.8214 121.394 35.5223 121.82C35.2227 122.247 35.0728 122.73 35.0728 123.27C35.0728 123.884 35.2533 124.379 35.6144 124.753C35.9749 125.128 36.451 125.42 37.0422 125.629C37.633 125.839 38.282 126.026 38.9885 126.191C39.6947 126.356 40.3972 126.536 41.0962 126.73C41.7948 126.925 42.4392 127.176 43.0307 127.483C43.6218 127.79 44.0977 128.199 44.4588 128.708C44.8196 129.217 45 129.884 45 130.708C45 131.472 44.7848 132.18 44.355 132.831C43.9251 133.483 43.2689 134.008 42.3859 134.404C41.503 134.802 40.3706 135 38.9885 135" fill="black"/>
<mask id="mask0_0_16584" style="mask-type:luminance" maskUnits="userSpaceOnUse" x="47" y="123" width="12" height="16">
<path fill-rule="evenodd" clip-rule="evenodd" d="M47 123H59V139H47V123Z" fill="white"/>
</mask>
<g mask="url(#mask0_0_16584)">
<path fill-rule="evenodd" clip-rule="evenodd" d="M52.9885 133.431C53.8293 133.431 54.5794 133.243 55.2398 132.868C55.9004 132.492 56.4256 131.961 56.8165 131.276C57.2064 130.591 57.4017 129.799 57.4017 128.9C57.4017 128.002 57.2064 127.214 56.8165 126.536C56.4256 125.858 55.9004 125.328 55.2398 124.945C54.5794 124.562 53.8293 124.37 52.9885 124.37C52.1482 124.37 51.3934 124.562 50.7262 124.945C50.0581 125.328 49.5327 125.858 49.1501 126.536C48.7672 127.214 48.5761 128.002 48.5761 128.9C48.5761 129.799 48.7672 130.591 49.1501 131.276C49.5327 131.961 50.0581 132.492 50.7262 132.868C51.3934 133.243 52.1482 133.431 52.9885 133.431V133.431ZM53.1012 134.823C52.0807 134.823 51.1573 134.591 50.3318 134.127C49.5063 133.663 48.8498 132.993 48.3619 132.116C47.8743 131.24 47.6305 130.168 47.6305 128.9C47.6305 127.634 47.8702 126.562 48.351 125.685C48.8312 124.809 49.4839 124.142 50.3093 123.685C51.1345 123.229 52.0656 123 53.1012 123C54.227 123 55.2365 123.247 56.1291 123.74C57.0221 124.234 57.7242 124.926 58.2343 125.818C58.7447 126.709 59 127.737 59 128.9C59 130.08 58.7447 131.111 58.2343 131.995C57.7242 132.879 57.0221 133.571 56.1291 134.072C55.2365 134.573 54.227 134.823 53.1012 134.823V134.823ZM47 139V123.111H48.5311V126.602L48.3734 128.923L48.5983 131.265V139H47Z" fill="black"/>
</g>
<path fill-rule="evenodd" clip-rule="evenodd" d="M68.4576 134.888V132.286L68.3899 131.86V127.508C68.3899 126.507 68.1065 125.736 67.5397 125.198C66.9729 124.66 66.1296 124.391 65.0115 124.391C64.2402 124.391 63.5069 124.518 62.8113 124.772C62.1164 125.026 61.5267 125.363 61.043 125.781L60.3174 124.592C60.9214 124.084 61.647 123.692 62.494 123.415C63.3403 123.139 64.2325 123 65.1697 123C66.7122 123 67.9024 123.378 68.7409 124.133C69.5804 124.888 70 126.036 70 127.575V134.888H68.4576ZM64.3538 135C63.4613 135 62.6868 134.854 62.0291 134.562C61.372 134.271 60.869 133.867 60.5215 133.351C60.1734 132.835 60 132.241 60 131.568C60 130.955 60.1472 130.398 60.4419 129.897C60.737 129.396 61.2206 128.993 61.8935 128.686C62.5658 128.38 63.469 128.226 64.6026 128.226H68.7073V129.415H64.6482C63.4991 129.415 62.702 129.617 62.2559 130.02C61.8101 130.424 61.5872 130.925 61.5872 131.523C61.5872 132.196 61.8515 132.734 62.3804 133.138C62.9097 133.542 63.6505 133.744 64.6026 133.744C65.51 133.744 66.2923 133.539 66.95 133.127C67.6071 132.716 68.0874 132.121 68.3899 131.344L68.7526 132.443C68.4501 133.22 67.925 133.841 67.1764 134.304C66.4285 134.768 65.4874 135 64.3538 135V135Z" fill="black"/>
<path fill-rule="evenodd" clip-rule="evenodd" d="M73 135V123.113H74.5454V126.351L74.3862 125.785C74.7192 124.879 75.2799 124.189 76.0678 123.713C76.8554 123.238 77.8333 123 79 123V124.562C78.9394 124.562 78.8787 124.559 78.8181 124.551C78.7572 124.543 78.6965 124.54 78.6365 124.54C77.3787 124.54 76.3934 124.921 75.6819 125.683C74.9695 126.445 74.6135 127.528 74.6135 128.932V135H73Z" fill="black"/>
<path fill-rule="evenodd" clip-rule="evenodd" d="M85.9299 135C84.7553 135 83.7242 134.742 82.8362 134.226C81.9476 133.71 81.2531 133 80.7516 132.095C80.2504 131.191 80 130.155 80 128.989C80 127.822 80.24 126.79 80.7197 125.893C81.1994 124.996 81.8584 124.29 82.6961 123.774C83.5344 123.258 84.4758 123 85.5213 123C86.5813 123 87.5232 123.251 88.3471 123.751C89.1704 124.252 89.8181 124.955 90.2907 125.86C90.764 126.765 91 127.808 91 128.989C91 129.064 90.996 129.142 90.9896 129.224C90.9819 129.307 90.9785 129.393 90.9785 129.482H81.1602V128.293H90.1623L89.5606 128.764C89.5606 127.912 89.3847 127.153 89.034 126.488C88.6833 125.823 88.2067 125.303 87.6059 124.929C87.0042 124.555 86.3094 124.368 85.5213 124.368C84.748 124.368 84.0534 124.555 83.4373 124.929C82.8212 125.303 82.3415 125.826 81.9979 126.499C81.6543 127.172 81.4823 127.942 81.4823 128.809V129.056C81.4823 129.953 81.6721 130.742 82.0521 131.422C82.4307 132.103 82.9613 132.634 83.6417 133.015C84.3219 133.396 85.0989 133.587 85.9728 133.587C86.66 133.587 87.3007 133.46 87.8953 133.205C88.4896 132.951 89.0021 132.563 89.4316 132.039L90.2907 133.071C89.7896 133.699 89.163 134.178 88.4114 134.506C87.6593 134.836 86.832 135 85.9299 135" fill="black"/>
<path fill-rule="evenodd" clip-rule="evenodd" d="M100.62 129.286L99.8976 128.463H104.694C106.226 128.463 107.39 128.116 108.186 127.423C108.982 126.73 109.38 125.751 109.38 124.486C109.38 123.206 108.982 122.215 108.186 121.514C107.39 120.813 106.226 120.463 104.694 120.463H99.8976L100.62 119.663V129.286ZM99 135V119H104.738C106.036 119 107.153 119.217 108.087 119.651C109.022 120.086 109.741 120.71 110.245 121.526C110.748 122.341 111 123.328 111 124.486C111 125.613 110.748 126.585 110.245 127.4C109.741 128.215 109.022 128.844 108.087 129.286C107.153 129.728 106.036 129.949 104.738 129.949H99.8976L100.62 129.149V135H99Z" fill="black"/>
<path fill-rule="evenodd" clip-rule="evenodd" d="M120.458 134.888V132.286L120.39 131.86V127.508C120.39 126.507 120.107 125.736 119.54 125.198C118.973 124.66 118.13 124.391 117.011 124.391C116.24 124.391 115.507 124.518 114.812 124.772C114.116 125.026 113.527 125.363 113.043 125.781L112.317 124.592C112.922 124.084 113.648 123.692 114.495 123.415C115.341 123.139 116.232 123 117.17 123C118.712 123 119.902 123.378 120.742 124.133C121.58 124.888 122 126.036 122 127.575V134.888H120.458ZM116.354 135C115.461 135 114.687 134.854 114.03 134.562C113.372 134.271 112.869 133.867 112.522 133.351C112.173 132.835 112 132.241 112 131.568C112 130.955 112.147 130.398 112.443 129.897C112.737 129.396 113.221 128.993 113.893 128.686C114.566 128.38 115.47 128.226 116.603 128.226H120.707V129.415H116.649C115.5 129.415 114.702 129.617 114.256 130.02C113.81 130.424 113.587 130.925 113.587 131.523C113.587 132.196 113.851 132.734 114.381 133.138C114.91 133.542 115.651 133.744 116.603 133.744C117.51 133.744 118.292 133.539 118.95 133.127C119.608 132.716 120.087 132.121 120.39 131.344L120.753 132.443C120.451 133.22 119.925 133.841 119.177 134.304C118.428 134.768 117.487 135 116.354 135V135Z" fill="black"/>
<path fill-rule="evenodd" clip-rule="evenodd" d="M125 135V123.113H126.545V126.351L126.387 125.785C126.72 124.879 127.28 124.189 128.068 123.713C128.856 123.238 129.833 123 131 123V124.562C130.939 124.562 130.878 124.559 130.818 124.551C130.757 124.543 130.697 124.54 130.636 124.54C129.378 124.54 128.394 124.921 127.682 125.683C126.969 126.445 126.613 127.528 126.613 128.932V135H125Z" fill="black"/>
<path fill-rule="evenodd" clip-rule="evenodd" d="M137.526 135C136.427 135 135.58 134.711 134.986 134.133C134.392 133.555 134.094 132.739 134.094 131.684V121H135.677V131.597C135.677 132.262 135.851 132.775 136.201 133.136C136.549 133.498 137.05 133.678 137.705 133.678C138.403 133.678 138.982 133.483 139.443 133.093L140 134.198C139.688 134.473 139.313 134.675 138.875 134.805C138.436 134.935 137.987 135 137.526 135V135ZM132 124.792H139.242V123.514H132V124.792Z" fill="black"/>
<path fill-rule="evenodd" clip-rule="evenodd" d="M144.965 135C143.96 135 143.009 134.862 142.112 134.585C141.214 134.308 140.51 133.961 140 133.542L140.742 132.286C141.237 132.645 141.872 132.955 142.645 133.217C143.418 133.478 144.231 133.609 145.081 133.609C146.241 133.609 147.077 133.434 147.587 133.082C148.097 132.731 148.353 132.263 148.353 131.68C148.353 131.247 148.209 130.906 147.923 130.66C147.637 130.413 147.262 130.226 146.798 130.099C146.334 129.972 145.816 129.863 145.243 129.774C144.671 129.684 144.103 129.58 143.538 129.46C142.973 129.34 142.459 129.164 141.996 128.933C141.532 128.701 141.156 128.383 140.87 127.98C140.584 127.576 140.441 127.037 140.441 126.364C140.441 125.722 140.627 125.146 140.997 124.637C141.369 124.129 141.914 123.729 142.633 123.437C143.353 123.146 144.231 123 145.267 123C146.056 123 146.844 123.101 147.633 123.303C148.422 123.505 149.072 123.77 149.582 124.099L148.863 125.377C148.321 125.019 147.741 124.761 147.123 124.604C146.504 124.447 145.886 124.368 145.267 124.368C144.169 124.368 143.36 124.552 142.842 124.918C142.324 125.284 142.065 125.751 142.065 126.32C142.065 126.768 142.208 127.12 142.494 127.374C142.78 127.628 143.159 127.826 143.631 127.968C144.103 128.11 144.621 128.226 145.186 128.316C145.75 128.405 146.314 128.514 146.879 128.641C147.443 128.768 147.961 128.94 148.434 129.157C148.905 129.374 149.284 129.681 149.571 130.076C149.856 130.473 150 130.993 150 131.636C150 132.324 149.803 132.918 149.408 133.419C149.014 133.92 148.441 134.308 147.691 134.585C146.941 134.862 146.033 135 144.965 135" fill="black"/>
<path fill-rule="evenodd" clip-rule="evenodd" d="M160.42 134.888C159.374 134.888 158.444 134.721 157.63 134.385C156.815 134.05 156.173 133.585 155.704 132.989C155.235 132.393 155 131.701 155 130.911C155 130.24 155.154 129.626 155.461 129.067C155.769 128.508 156.265 127.957 156.949 127.414C157.633 126.87 158.544 126.3 159.682 125.704C160.651 125.183 161.408 124.732 161.954 124.352C162.499 123.972 162.888 123.607 163.118 123.257C163.349 122.907 163.464 122.531 163.464 122.129C163.464 121.548 163.261 121.079 162.853 120.721C162.446 120.363 161.865 120.185 161.112 120.185C160.297 120.185 159.667 120.382 159.221 120.777C158.774 121.172 158.552 121.681 158.552 122.307C158.552 122.62 158.602 122.918 158.702 123.201C158.802 123.484 158.994 123.797 159.278 124.14C159.563 124.483 159.959 124.915 160.466 125.436L169 133.95L168.054 135L159.152 126.129C158.614 125.578 158.187 125.097 157.872 124.687C157.556 124.278 157.337 123.887 157.214 123.514C157.091 123.142 157.03 122.747 157.03 122.33C157.03 121.659 157.195 121.075 157.525 120.576C157.856 120.077 158.329 119.689 158.944 119.414C159.559 119.138 160.282 119 161.112 119C161.865 119 162.523 119.123 163.084 119.369C163.645 119.615 164.083 119.969 164.398 120.43C164.713 120.892 164.872 121.451 164.872 122.106C164.872 122.673 164.729 123.201 164.444 123.693C164.16 124.184 163.695 124.665 163.049 125.134C162.403 125.603 161.527 126.129 160.42 126.709C159.451 127.231 158.686 127.708 158.125 128.14C157.564 128.572 157.168 128.993 156.938 129.402C156.707 129.812 156.591 130.263 156.591 130.754C156.591 131.321 156.756 131.816 157.087 132.24C157.418 132.665 157.879 132.993 158.471 133.224C159.063 133.455 159.744 133.57 160.513 133.57C161.588 133.57 162.55 133.354 163.395 132.922C164.241 132.49 164.952 131.835 165.529 130.955C166.105 130.076 166.524 128.974 166.786 127.648L168.1 128.05C167.808 129.54 167.308 130.792 166.601 131.805C165.894 132.818 165.017 133.585 163.972 134.106C162.926 134.628 161.742 134.888 160.42 134.888" fill="black"/>
<path fill-rule="evenodd" clip-rule="evenodd" d="M179.989 135C178.791 135 177.643 134.809 176.545 134.427C175.447 134.045 174.599 133.554 174 132.955L174.668 131.674C175.236 132.213 176 132.667 176.96 133.034C177.92 133.401 178.929 133.584 179.989 133.584C181.002 133.584 181.827 133.461 182.465 133.213C183.101 132.966 183.57 132.633 183.869 132.213C184.169 131.794 184.319 131.33 184.319 130.82C184.319 130.206 184.138 129.712 183.778 129.337C183.417 128.963 182.944 128.667 182.361 128.449C181.777 128.233 181.132 128.041 180.426 127.876C179.72 127.712 179.013 127.536 178.307 127.348C177.601 127.161 176.952 126.91 176.361 126.596C175.77 126.281 175.293 125.865 174.933 125.348C174.572 124.831 174.392 124.154 174.392 123.315C174.392 122.536 174.602 121.82 175.025 121.169C175.447 120.517 176.096 119.993 176.971 119.596C177.847 119.199 178.967 119 180.334 119C181.24 119 182.139 119.124 183.029 119.371C183.919 119.618 184.688 119.959 185.332 120.393L184.756 121.719C184.066 121.27 183.332 120.941 182.557 120.731C181.781 120.521 181.033 120.416 180.311 120.416C179.344 120.416 178.545 120.543 177.915 120.798C177.286 121.053 176.822 121.394 176.522 121.82C176.223 122.247 176.073 122.73 176.073 123.27C176.073 123.884 176.254 124.379 176.614 124.753C176.975 125.128 177.451 125.42 178.042 125.629C178.633 125.839 179.282 126.026 179.989 126.191C180.695 126.356 181.397 126.536 182.096 126.73C182.795 126.925 183.44 127.176 184.031 127.483C184.622 127.79 185.098 128.199 185.459 128.708C185.82 129.217 186 129.884 186 130.708C186 131.472 185.785 132.18 185.355 132.831C184.925 133.483 184.269 134.008 183.386 134.404C182.503 134.802 181.37 135 179.989 135" fill="black"/>
<path fill-rule="evenodd" clip-rule="evenodd" d="M195.458 134.888V132.286L195.39 131.86V127.508C195.39 126.507 195.107 125.736 194.54 125.198C193.973 124.66 193.13 124.391 192.011 124.391C191.24 124.391 190.507 124.518 189.811 124.772C189.116 125.026 188.527 125.363 188.043 125.781L187.317 124.592C187.921 124.084 188.647 123.692 189.494 123.415C190.34 123.139 191.232 123 192.17 123C193.712 123 194.902 123.378 195.741 124.133C196.58 124.888 197 126.036 197 127.575V134.888H195.458ZM191.354 135C190.461 135 189.687 134.854 189.029 134.562C188.372 134.271 187.869 133.867 187.522 133.351C187.173 132.835 187 132.241 187 131.568C187 130.955 187.147 130.398 187.442 129.897C187.737 129.396 188.221 128.993 188.893 128.686C189.566 128.38 190.469 128.226 191.603 128.226H195.707V129.415H191.648C190.499 129.415 189.702 129.617 189.256 130.02C188.81 130.424 188.587 130.925 188.587 131.523C188.587 132.196 188.851 132.734 189.38 133.138C189.91 133.542 190.651 133.744 191.603 133.744C192.51 133.744 193.292 133.539 193.95 133.127C194.607 132.716 195.087 132.121 195.39 131.344L195.753 132.443C195.45 133.22 194.925 133.841 194.176 134.304C193.428 134.768 192.487 135 191.354 135V135Z" fill="black"/>
<path fill-rule="evenodd" clip-rule="evenodd" d="M204.526 135C203.427 135 202.58 134.711 201.986 134.133C201.392 133.555 201.094 132.739 201.094 131.684V121H202.677V131.597C202.677 132.262 202.851 132.775 203.201 133.136C203.549 133.498 204.05 133.678 204.705 133.678C205.403 133.678 205.982 133.483 206.443 133.093L207 134.198C206.688 134.473 206.313 134.675 205.875 134.805C205.436 134.935 204.987 135 204.526 135V135ZM199 124.792H206.242V123.514H199V124.792Z" fill="black"/>
<path fill-rule="evenodd" clip-rule="evenodd" d="M214.091 122.857C215.06 122.857 215.913 123.045 216.648 123.418C217.382 123.793 217.958 124.362 218.375 125.125C218.791 125.889 219 126.852 219 128.012V135H217.387V128.172C217.387 126.905 217.071 125.947 216.443 125.297C215.814 124.648 214.932 124.324 213.796 124.324C212.947 124.324 212.208 124.495 211.58 124.839C210.951 125.183 210.466 125.679 210.125 126.328C209.785 126.978 209.614 127.76 209.614 128.676V135H208V118H209.614V126.271L209.296 125.652C209.674 124.782 210.28 124.098 211.114 123.602C211.947 123.106 212.939 122.857 214.091 122.857" fill="black"/>
<path fill-rule="evenodd" clip-rule="evenodd" d="M230.458 134.888V132.286L230.39 131.86V127.508C230.39 126.507 230.107 125.736 229.54 125.198C228.973 124.66 228.13 124.391 227.011 124.391C226.24 124.391 225.507 124.518 224.812 124.772C224.116 125.026 223.527 125.363 223.043 125.781L222.317 124.592C222.922 124.084 223.648 123.692 224.495 123.415C225.341 123.139 226.232 123 227.17 123C228.712 123 229.902 123.378 230.742 124.133C231.58 124.888 232 126.036 232 127.575V134.888H230.458ZM226.354 135C225.461 135 224.687 134.854 224.03 134.562C223.372 134.271 222.869 133.867 222.522 133.351C222.173 132.835 222 132.241 222 131.568C222 130.955 222.147 130.398 222.443 129.897C222.737 129.396 223.221 128.993 223.893 128.686C224.566 128.38 225.47 128.226 226.603 128.226H230.707V129.415H226.649C225.5 129.415 224.702 129.617 224.256 130.02C223.81 130.424 223.587 130.925 223.587 131.523C223.587 132.196 223.851 132.734 224.381 133.138C224.91 133.542 225.651 133.744 226.603 133.744C227.51 133.744 228.292 133.539 228.95 133.127C229.608 132.716 230.087 132.121 230.39 131.344L230.753 132.443C230.451 133.22 229.925 133.841 229.177 134.304C228.428 134.768 227.487 135 226.354 135V135Z" fill="black"/>
<mask id="mask1_0_16584" style="mask-type:luminance" maskUnits="userSpaceOnUse" x="33" y="89" width="203" height="50">
<path fill-rule="evenodd" clip-rule="evenodd" d="M33 139H236V89H33V139Z" fill="white"/>
</mask>
<g mask="url(#mask1_0_16584)">
<path fill-rule="evenodd" clip-rule="evenodd" d="M41.3277 93.2078H44.8218V90H41.3277V93.2078ZM36.4747 93.2078H39.9688V90H36.4747V93.2078ZM45.4282 95.6266L45.4037 102.526C45.4037 103.409 45.5615 104.033 45.8767 104.398C46.1924 104.763 46.6571 104.945 47.272 104.945H47.7572C47.8544 104.945 47.9188 104.975 47.9516 105.034C47.9838 105.094 48 105.149 48 105.199V107.746C48 107.796 47.9838 107.851 47.9516 107.911C47.9188 107.97 47.8544 108 47.7572 108H46.2531C44.878 108 43.8266 107.559 43.0985 106.676C42.3708 105.794 42.0067 104.597 42.0067 103.087V98.3509C41.4405 98.2322 40.931 98.1727 40.4783 98.1727C38.5045 98.1727 37.5178 99.3355 37.5178 101.661C37.5178 102.679 37.7728 103.481 38.2826 104.067C38.7918 104.652 39.5238 104.945 40.4783 104.945H41.74L40.4296 108H39.9443C38.8285 108 37.8173 107.737 36.9115 107.211C36.0054 106.685 35.2939 105.938 34.7764 104.97C34.2584 104.003 34 102.883 34 101.61C34 100.388 34.2747 99.2801 34.8249 98.2872C35.3748 97.2943 36.1473 96.5175 37.142 95.9575C38.1367 95.3975 39.2892 95.1174 40.5997 95.1174C41.7158 95.1174 43.3251 95.2872 45.4282 95.6266V95.6266Z" fill="black"/>
<path fill-rule="evenodd" clip-rule="evenodd" d="M57.8794 96.1945C59.0811 96.991 59.9461 98.0745 60.4746 99.4446L61.8548 102.99C62.0767 103.59 62.4731 104.061 63.0441 104.403C63.6149 104.746 64.1818 104.917 64.7442 104.917C64.8469 104.917 64.9144 104.947 64.949 105.007C64.9829 105.067 65 105.123 65 105.174V107.743C65 107.795 64.9829 107.85 64.949 107.91C64.9144 107.97 64.8469 108 64.7442 108C62.3752 108 60.6364 107.384 59.5284 106.15C58.4202 106.75 57.1762 107.208 55.7954 107.525C54.4148 107.842 53.0766 108 51.781 108H47.2555C47.1534 108 47.0856 107.97 47.0513 107.91C47.0171 107.85 47 107.795 47 107.743V105.174C47 105.123 47.0171 105.067 47.0513 105.007C47.0856 104.947 47.1534 104.917 47.2555 104.917H51.781C53.0766 104.917 54.2401 104.853 55.2714 104.724C56.3025 104.596 57.3294 104.335 58.352 103.941L57.1762 101.089C56.8349 100.25 56.3154 99.6033 55.6164 99.1492C54.9174 98.6954 54.0824 98.4682 53.1105 98.4682C52.0368 98.4682 51.0567 98.6827 50.1707 99.1106L48.8664 96.1818C50.3496 95.394 51.9431 95 53.6477 95C55.2669 95 56.6778 95.398 57.8794 96.1945" fill="black"/>
<path fill-rule="evenodd" clip-rule="evenodd" d="M74.7743 99.1946C73.6158 99.6743 72.4121 100.36 71.163 101.253V105.024H79.3966C80.3661 105.024 81.1098 104.738 81.6277 104.168C82.1456 103.597 82.4039 102.816 82.4039 101.824C82.3877 100.815 82.0426 100.005 81.3686 99.3932C80.6947 98.7815 79.7912 98.4754 78.657 98.4754C77.2272 98.4754 75.9335 98.7151 74.7743 99.1946M79.2733 95.4493C80.6698 95.4493 81.8741 95.7222 82.8847 96.2678C83.8956 96.8133 84.6633 97.566 85.1899 98.5249C85.7156 99.4841 85.9785 100.567 85.9785 101.774C85.9785 102.717 85.8308 103.56 85.5347 104.304C86.0442 104.784 86.7836 105.024 87.7534 105.024C87.8524 105.024 87.9178 105.053 87.9508 105.11C87.9835 105.168 88 105.222 88 105.272V107.752C88 107.802 87.9835 107.855 87.9508 107.913C87.9178 107.971 87.8524 108 87.7534 108C87.1946 108 86.5908 107.864 85.9417 107.591C85.2921 107.318 84.7131 106.909 84.2036 106.363C83.0694 107.454 81.6645 108 79.9886 108H65.2466C65.1482 108 65.0825 107.971 65.0492 107.913C65.0171 107.855 65 107.802 65 107.752V105.272C65 105.222 65.0171 105.168 65.0492 105.11C65.0825 105.053 65.1482 105.024 65.2466 105.024H67.7119V89H71.163V98.3018C74.006 96.4003 76.7099 95.4493 79.2733 95.4493" fill="black"/>
<path fill-rule="evenodd" clip-rule="evenodd" d="M103.383 108C101.617 108 100.273 107.469 99.3486 106.405C98.441 107.469 97.2451 108 95.7601 108H87.2476C87.1488 108 87.0828 107.972 87.0494 107.915C87.0171 107.859 87 107.807 87 107.758V105.342C87 105.294 87.0171 105.242 87.0494 105.185C87.0828 105.129 87.1488 105.101 87.2476 105.101H89.7221V96.015H93.1868V105.101H94.7209C95.3806 105.101 95.9458 104.847 96.4163 104.339C96.8862 103.832 97.1213 103.159 97.1213 102.322V96.015H100.586V102.998C100.635 103.691 101.006 104.215 101.7 104.569C102.393 104.923 103.16 105.101 104.001 105.101H105.535V95H109V108H103.383Z" fill="black"/>
<path fill-rule="evenodd" clip-rule="evenodd" d="M129 95.5135V106.99C129 108.582 128.728 109.857 128.185 110.816C127.641 111.775 126.898 112.489 125.955 112.96C125.013 113.43 123.845 113.777 122.452 114L121.025 110.79C122.078 110.653 122.915 110.461 123.535 110.213C124.155 109.965 124.626 109.597 124.949 109.109C125.271 108.621 125.433 107.957 125.433 107.119V98.2609C124.838 98.1412 124.294 98.0812 123.803 98.0812C121.73 98.0812 120.694 99.2538 120.694 101.599C120.694 102.626 120.961 103.435 121.497 104.025C122.032 104.615 122.8 104.911 123.803 104.911H124.923L123.548 107.992H123.191C122.019 107.992 120.961 107.726 120.019 107.196C119.076 106.666 118.337 105.912 117.802 104.936C117.267 103.961 117 102.831 117 101.547C117 100.315 117.288 99.198 117.866 98.1967C118.443 97.1953 119.254 96.412 120.299 95.8473C121.343 95.2825 122.554 95 123.93 95C125.102 95 126.792 95.1713 129 95.5135" fill="#CA2A2A"/>
<path fill-rule="evenodd" clip-rule="evenodd" d="M141.449 112.212C140.415 113.223 139.077 113.819 137.436 114L136 110.918C136.838 110.803 137.496 110.647 137.974 110.449C138.453 110.252 138.812 109.927 139.051 109.475C139.291 109.023 139.41 108.394 139.41 107.589V96H143V107.49C143 109.627 142.483 111.201 141.449 112.212" fill="black"/>
<path fill-rule="evenodd" clip-rule="evenodd" d="M149.874 104.49C150.19 104.846 150.656 105.024 151.271 105.024H151.757C151.855 105.024 151.919 105.053 151.952 105.11C151.984 105.169 152 105.222 152 105.272V107.752C152 107.802 151.984 107.855 151.952 107.913C151.919 107.971 151.855 108 151.757 108H150.251C148.874 108 147.822 107.566 147.093 106.698C146.364 105.83 146 104.668 146 103.213V89H149.401V102.667C149.401 103.527 149.559 104.135 149.874 104.49" fill="black"/>
<path fill-rule="evenodd" clip-rule="evenodd" d="M158.553 114H162.167V110.85H158.553V114ZM153.532 114H157.146V110.85H153.532V114ZM160.335 104.625C160.703 105.025 161.121 105.296 161.59 105.438C162.058 105.579 162.778 105.65 163.749 105.65C163.849 105.65 163.916 105.679 163.949 105.738C163.983 105.796 164 105.85 164 105.9V108.4C164 108.45 163.983 108.504 163.949 108.563C163.916 108.621 163.849 108.65 163.749 108.65C162.695 108.633 161.849 108.488 161.213 108.213C160.577 107.937 159.975 107.45 159.406 106.75C158.971 107.35 158.422 107.817 157.761 108.15C157.1 108.483 156.368 108.65 155.565 108.65H152.251C152.151 108.65 152.084 108.621 152.05 108.563C152.017 108.504 152 108.45 152 108.4V105.9C152 105.85 152.017 105.796 152.05 105.738C152.084 105.679 152.151 105.65 152.251 105.65H154.511C155.179 105.65 155.753 105.388 156.23 104.862C156.707 104.338 156.945 103.642 156.945 102.775V96H160.46V103.325C160.46 103.742 160.418 104.175 160.335 104.625V104.625Z" fill="black"/>
<path fill-rule="evenodd" clip-rule="evenodd" d="M169.381 93.2078H172.944V90H169.381V93.2078ZM173.611 95.4358C174.304 95.6481 175.178 95.9665 176.233 96.3905L175.12 99.3692C173.949 98.8433 172.935 98.5799 172.078 98.5799C170.907 98.5799 169.988 98.8433 169.32 99.3692C168.652 99.8955 168.318 100.659 168.318 101.661C168.318 102.832 168.672 103.927 169.381 104.945H177L176.258 108H163.247C163.148 108 163.083 107.97 163.049 107.911C163.017 107.851 163 107.796 163 107.746V105.199C163 105.149 163.017 105.094 163.049 105.034C163.083 104.975 163.148 104.945 163.247 104.945H165.647C165.036 103.74 164.732 102.628 164.732 101.61C164.732 100.371 164.995 99.2589 165.523 98.2744C166.051 97.2901 166.821 96.5175 167.836 95.9575C168.85 95.3975 170.058 95.1174 171.459 95.1174C172.202 95.1174 172.919 95.2235 173.611 95.4358V95.4358Z" fill="black"/>
<path fill-rule="evenodd" clip-rule="evenodd" d="M188.216 99.3501C188.685 100.25 189.292 101.192 190.037 102.175C190.782 103.159 191.524 103.984 192.261 104.65C193.199 104.15 193.97 103.559 194.573 102.875C195.176 102.192 195.478 101.509 195.478 100.825C195.478 100.075 195.133 99.4792 194.447 99.0377C193.76 98.5961 192.923 98.3751 191.935 98.3751C190.913 98.3751 189.673 98.7001 188.216 99.3501M195.528 95.7375C196.583 96.2292 197.425 96.8748 198.053 97.6749C198.681 98.4752 198.995 99.3169 198.995 100.2C198.995 101.017 198.76 101.842 198.292 102.675C197.823 103.509 197.186 104.267 196.382 104.95C197.269 105.084 198.367 105.15 199.674 105.15C199.891 105.15 200 105.242 200 105.425V107.875C200 108.058 199.891 108.15 199.674 108.15C197.027 108.15 194.682 107.841 192.638 107.225C191.733 107.675 191.034 108.079 190.54 108.438C190.046 108.796 189.669 109.191 189.409 109.625C189.149 110.058 189.02 110.591 189.02 111.225C189.02 111.791 189.104 112.258 189.271 112.625C189.439 112.992 189.723 113.434 190.126 113.95L190.1 114H186.356C185.787 112.916 185.502 111.967 185.502 111.15C185.502 109.816 185.812 108.742 186.432 107.925C187.052 107.109 187.998 106.384 189.271 105.75C188.45 104.934 187.73 104.084 187.11 103.2C186.49 102.317 185.787 101.217 185 99.8999L185.778 96.65C187.068 96.1001 188.199 95.6876 189.17 95.4125C190.142 95.1374 191.131 95 192.136 95C193.342 95 194.473 95.246 195.528 95.7375" fill="black"/>
<path fill-rule="evenodd" clip-rule="evenodd" d="M208.774 99.1946C207.616 99.6743 206.412 100.36 205.163 101.253V105.024H213.397C214.366 105.024 215.11 104.738 215.628 104.168C216.146 103.597 216.404 102.816 216.404 101.824C216.388 100.815 216.043 100.005 215.369 99.3932C214.695 98.7815 213.791 98.4754 212.657 98.4754C211.227 98.4754 209.933 98.7151 208.774 99.1946M213.273 95.4493C214.67 95.4493 215.874 95.7222 216.885 96.2678C217.896 96.8133 218.663 97.566 219.19 98.5249C219.716 99.4841 219.978 100.567 219.978 101.774C219.978 102.717 219.831 103.56 219.535 104.304C220.044 104.784 220.784 105.024 221.753 105.024C221.852 105.024 221.918 105.053 221.951 105.11C221.983 105.168 222 105.222 222 105.272V107.752C222 107.802 221.983 107.855 221.951 107.913C221.918 107.971 221.852 108 221.753 108C221.195 108 220.591 107.864 219.942 107.591C219.292 107.318 218.713 106.909 218.204 106.363C217.069 107.454 215.665 108 213.989 108H199.247C199.148 108 199.083 107.971 199.049 107.913C199.017 107.855 199 107.802 199 107.752V105.272C199 105.222 199.017 105.168 199.049 105.11C199.083 105.053 199.148 105.024 199.247 105.024H201.712V89H205.163V98.3018C208.006 96.4003 210.71 95.4493 213.273 95.4493" fill="black"/>
<path fill-rule="evenodd" clip-rule="evenodd" d="M231.265 93.2078H234.991V90H231.265V93.2078ZM227.59 101.661C227.59 102.628 227.909 103.409 228.547 104.003C229.186 104.597 230.013 104.911 231.031 104.945H232.378V98.3509C231.773 98.2322 231.23 98.1727 230.747 98.1727C228.642 98.1727 227.59 99.3355 227.59 101.661V101.661ZM226.089 93.2078H229.815V90H226.089V93.2078ZM236 95.6266V108H222.259C222.156 108 222.087 107.97 222.052 107.911C222.018 107.851 222 107.796 222 107.746V105.199C222 105.149 222.018 105.094 222.052 105.034C222.087 104.975 222.156 104.945 222.259 104.945H225.468C224.364 104.079 223.812 102.832 223.812 101.202C223.812 100.116 224.118 99.1064 224.73 98.1727C225.342 97.2393 226.188 96.4966 227.266 95.9447C228.344 95.3937 229.547 95.1174 230.876 95.1174C232.084 95.1174 233.792 95.2872 236 95.6266V95.6266Z" fill="black"/>
</g>
<path fill-rule="evenodd" clip-rule="evenodd" d="M119 55C105.842 55.7443 92.5096 57.4107 79 60C92.079 59.553 104.978 59.37 117.698 59.4511L119 55Z" fill="#CA2A2A"/>
<path fill-rule="evenodd" clip-rule="evenodd" d="M127 26C104.63 30.4162 60.1893 44.8138 33 59C66.2231 48.9003 96.1696 42.7292 122.838 40.4892L123.004 40.4751L127 26Z" fill="#CA2A2A"/>
<path fill-rule="evenodd" clip-rule="evenodd" d="M134 1C124.159 3.5645 114.558 6.41414 105.199 9.54624C65.8864 22.7008 30.8204 40.8509 0 64C42.34 42.9753 79.5224 28.5335 111.549 20.6763C117.748 19.1551 123.754 17.8805 129.566 16.8531L134 1Z" fill="black"/>
<path fill-rule="evenodd" clip-rule="evenodd" d="M163 0L177.352 4.22824H230.644C233.814 4.22824 236.384 6.81449 236.384 10.0049V63H246.77V9.95884C246.77 6.76841 249.34 4.18215 252.51 4.18215H269V0H163Z" fill="#CA2A2A"/>
<path fill-rule="evenodd" clip-rule="evenodd" d="M209.149 49.3608C206.68 49.4414 204.635 47.4367 204.635 44.9317C204.631 39.0755 204.631 29.0757 204.625 24.0959L204.628 24.0925V22.0543H210.807C211.708 22.061 212.64 22.2222 213.588 22.5982C213.717 22.6486 213.846 22.7023 213.976 22.7561C217.476 24.2537 220.041 26.8695 221.815 30.7445C223.303 33.9916 223.469 38.6021 223.114 41.9936C222.852 44.4784 221.457 46.2917 218.848 47.5408C217.304 48.2796 215.669 48.7833 213.976 49.0485H213.972C213.409 49.1392 212.839 49.1996 212.259 49.2332C211.509 49.2769 210.346 49.3205 209.149 49.3608M231.948 32.8802C231.872 31.893 231.699 30.9192 231.431 29.9722C230.397 26.339 228.149 23.1758 224.924 20.8186C221.835 18.562 217.976 17.2088 214.062 17.0107C214.035 17.0107 214.012 17.0073 213.985 17.0073C213.704 16.9939 213.422 17.0006 213.137 17.014L213.14 17.0107H196V62H204.651V53.5381H204.867C205.954 53.5381 207.021 53.5347 208.092 53.5414C209.875 53.5515 211.937 53.528 213.976 53.1452C214.068 53.1284 214.158 53.1116 214.251 53.0915C215.036 52.9303 215.802 52.7422 216.544 52.5273C221.245 51.1741 225.073 48.753 227.947 45.3078C229.26 43.733 230.284 41.913 230.973 39.9788C231.497 38.508 231.832 36.9735 231.948 35.4322C232.017 34.5793 232.017 33.7264 231.948 32.8802" fill="black"/>
<path fill-rule="evenodd" clip-rule="evenodd" d="M233 41V62H224.01V53.5517H223.782C222.652 53.5517 221.542 53.5484 220.429 53.5551C219.661 53.5584 218.844 53.5584 218 53.5283C222.886 52.1772 226.866 49.7601 229.854 46.3204C231.218 44.7481 232.283 42.931 233 41" fill="#CA2A2A"/>
<mask id="mask2_0_16584" style="mask-type:luminance" maskUnits="userSpaceOnUse" x="134" y="0" width="59" height="63">
<path fill-rule="evenodd" clip-rule="evenodd" d="M134 0H193V63H134V0Z" fill="white"/>
</mask>
<g mask="url(#mask2_0_16584)">
<path fill-rule="evenodd" clip-rule="evenodd" d="M191.823 45.3341C189.933 60.6216 174.218 63.3667 164.589 62.9635C152.782 62.4662 149.34 60.0068 143.472 55.2592C139.152 51.7616 135.986 47.6121 134 42.8679H147.118C147.507 43.4828 147.916 44.0775 148.342 44.6588V44.7797C148.342 45.1997 148.664 45.5525 149.093 45.6398C150.085 46.8897 151.166 48.0523 152.33 49.1274C152.755 50.0212 153.281 50.8678 153.883 51.6608L152.532 52.8905C152.157 53.2298 152.153 53.7876 152.526 54.1337L155.097 56.5057C155.469 56.8518 156.078 56.8518 156.454 56.5125L157.804 55.2861C159.71 56.5259 161.922 57.3995 164.317 57.7926L164.31 59.5364C164.31 60.0168 164.739 60.4167 165.268 60.4167L168.913 60.4335C169.439 60.4368 169.874 60.0437 169.874 59.5599L169.881 57.8161C172.279 57.4465 174.497 56.5931 176.413 55.3667L177.754 56.6065C178.126 56.9526 178.738 56.9526 179.111 56.6133L181.698 54.2613C182.071 53.922 182.074 53.3642 181.702 53.0182L180.361 51.7784C181.512 50.2933 182.37 48.6033 182.862 46.7789C182.922 46.6277 182.982 46.4731 183.042 46.3185C183.105 46.1506 183.168 45.9826 183.225 45.8146L184.988 45.8213C185.516 45.8246 185.949 45.4315 185.952 44.9477L185.962 41.608C185.965 41.1242 185.533 40.7243 185.008 40.7243L183.358 40.7142C183.225 40.3346 183.052 39.9415 182.836 39.545C182.35 37.7945 181.522 36.1649 180.424 34.7236L181.775 33.4972C182.147 33.1578 182.151 32.5967 181.778 32.254L179.21 29.8786C178.838 29.5359 178.226 29.5325 177.853 29.8752L176.503 31.1016C174.597 29.8584 172.382 28.9849 169.987 28.5951L169.994 26.8513C169.997 26.3675 169.568 25.971 169.039 25.9677L165.394 25.9509C164.865 25.9509 164.433 26.344 164.43 26.8278L164.423 28.5716C163.216 28.7597 162.052 29.0688 160.947 29.4888C152.017 27.1974 145.671 24.4557 141.923 21.4117C137.685 17.9711 136.761 14.1476 139.175 10.1493C139.175 10.1493 139.179 10.1459 139.179 10.1426H139.182C141.194 6.98763 144.78 3.97716 149.622 2.16282C150.883 1.69243 153.474 0.983495 154.784 0.734863C166.006 -1.41211 178.119 1.36316 184.183 6.22157C184.618 6.57436 185.044 6.93387 185.457 7.3001C189.252 10.6566 191.304 13.4185 193 17.9409H180.122C179.457 16.6406 179.427 16.6809 178.602 15.6125C174.744 10.613 169.622 7.08842 163.385 5.14304C160.635 4.28627 158.09 4.06452 155.606 4.46771C152.163 5.02881 149.24 6.65836 146.885 9.32611C141.773 16.5364 161.656 16.0291 179.852 25.1344C183.634 27.026 193.269 33.6551 191.823 45.3341" fill="#CA2A2A"/>
</g>
</svg>
