<svg width="31" height="30" viewBox="0 0 31 30" fill="none" xmlns="http://www.w3.org/2000/svg">
<path d="M4.65967 21.25C4.65967 22.6307 5.77896 23.75 7.15967 23.75C8.54038 23.75 9.65967 22.6307 9.65967 21.25C9.65967 19.8693 8.54038 18.75 7.15967 18.75C5.77896 18.75 4.65967 19.8693 4.65967 21.25" stroke="black" stroke-width="1.875" stroke-linecap="round" stroke-linejoin="round"/>
<path d="M19.6597 21.25C19.6597 22.6307 20.779 23.75 22.1597 23.75C23.5404 23.75 24.6597 22.6307 24.6597 21.25C24.6597 19.8693 23.5404 18.75 22.1597 18.75C20.779 18.75 19.6597 19.8693 19.6597 21.25" stroke="black" stroke-width="1.875" stroke-linecap="round" stroke-linejoin="round"/>
<path d="M9.65967 21.5625C9.1419 21.5625 8.72217 21.9822 8.72217 22.5C8.72217 23.0178 9.1419 23.4375 9.65967 23.4375V21.5625ZM19.6597 23.4375C20.1774 23.4375 20.5972 23.0178 20.5972 22.5C20.5972 21.9822 20.1774 21.5625 19.6597 21.5625V23.4375ZM24.6597 21.5625C24.1419 21.5625 23.7222 21.9822 23.7222 22.5C23.7222 23.0178 24.1419 23.4375 24.6597 23.4375V21.5625ZM27.1597 22.5V23.4375C27.6774 23.4375 28.0972 23.0178 28.0972 22.5H27.1597ZM19.6597 8.75V7.8125C19.3633 7.8125 19.0844 7.95262 18.9075 8.19038C18.7306 8.42814 18.6766 8.73554 18.7617 9.01939L19.6597 8.75ZM21.5347 15L20.6367 15.2694C20.7557 15.6659 21.1207 15.9375 21.5347 15.9375V15ZM27.1597 15.9375C27.6774 15.9375 28.0972 15.5178 28.0972 15C28.0972 14.4822 27.6774 14.0625 27.1597 14.0625V15.9375ZM9.65967 23.4375H19.6597V21.5625H9.65967V23.4375ZM24.6597 23.4375H27.1597V21.5625H24.6597V23.4375ZM28.0972 22.5V15H26.2222V22.5H28.0972ZM28.0972 15C28.0972 11.0305 24.8792 7.8125 20.9097 7.8125V9.6875C23.8437 9.6875 26.2222 12.066 26.2222 15H28.0972ZM20.9097 7.8125H19.6597V9.6875H20.9097V7.8125ZM18.7617 9.01939L20.6367 15.2694L22.4326 14.7306L20.5576 8.48061L18.7617 9.01939ZM21.5347 15.9375H27.1597V14.0625H21.5347V15.9375Z" fill="black"/>
<path d="M15.9097 22.5V8.75H19.6597" stroke="black" stroke-width="1.875" stroke-linecap="round" stroke-linejoin="round"/>
<path d="M4.65967 21.25V15H15.9097" stroke="black" stroke-width="1.875" stroke-linecap="round" stroke-linejoin="round"/>
<path d="M5.90967 15V7.5L28.4097 3.75V6.25" stroke="black" stroke-width="1.875" stroke-linecap="round" stroke-linejoin="round"/>
<path d="M10.9097 15V10L5.90967 7.5" stroke="black" stroke-width="1.875" stroke-linecap="round" stroke-linejoin="round"/>
</svg>
