<svg width="24" height="24" viewBox="0 0 24 24" fill="none" xmlns="http://www.w3.org/2000/svg">
<path fill-rule="evenodd" clip-rule="evenodd" d="M6.54545 1.09091C6.54545 0.488422 6.05703 0 5.45455 0C4.85206 0 4.36364 0.488422 4.36364 1.09091V2.18182H3.27273C1.46525 2.18182 0 3.64707 0 5.45455V6.54545C0 7.14794 0.488422 7.63636 1.09091 7.63636H22.9091C23.5116 7.63636 24 7.14794 24 6.54545V5.45455C24 3.64707 22.5348 2.18182 20.7273 2.18182H19.6364V1.09091C19.6364 0.488422 19.148 0 18.5455 0C17.9429 0 17.4545 0.488422 17.4545 1.09091V2.18182H6.54545V1.09091ZM24 10.9092C24 10.3067 23.5116 9.81829 22.9091 9.81829H1.09091C0.488422 9.81829 0 10.3067 0 10.9092V20.7273C0 22.5348 1.46525 24 3.27273 24H20.7273C22.5348 24 24 22.5348 24 20.7273V10.9092Z" fill="black"/>
</svg>
