<svg width="30" height="30" viewBox="0 0 30 30" fill="none" xmlns="http://www.w3.org/2000/svg">
<path fill-rule="evenodd" clip-rule="evenodd" d="M18.75 12.5L24.4412 9.655C24.8286 9.46142 25.2886 9.48214 25.657 9.70975C26.0254 9.93737 26.2498 10.3394 26.25 10.7725V19.2275C26.2498 19.6605 26.0254 20.0626 25.657 20.2902C25.2886 20.5179 24.8286 20.5386 24.4412 20.345L18.75 17.5V12.5Z" stroke="black" stroke-width="1.875" stroke-linecap="round" stroke-linejoin="round"/>
<path fill-rule="evenodd" clip-rule="evenodd" d="M3.75 10C3.75 8.61929 4.86929 7.5 6.25 7.5H16.25C17.6307 7.5 18.75 8.61929 18.75 10V20C18.75 21.3807 17.6307 22.5 16.25 22.5H6.25C4.86929 22.5 3.75 21.3807 3.75 20V10Z" stroke="black" stroke-width="1.875" stroke-linecap="round" stroke-linejoin="round"/>
</svg>
